<?xml version="1.0" encoding="utf-8"?>
<!-- Generator: Adobe Illustrator 23.0.1, SVG Export Plug-In . SVG Version: 6.00 Build 0)  -->
<svg version="1.1" id="Capa_1" xmlns="http://www.w3.org/2000/svg" xmlns:xlink="http://www.w3.org/1999/xlink" x="0px" y="0px"
	 viewBox="0 0 194.12 194.12" style="enable-background:new 0 0 194.12 194.12;" xml:space="preserve">
<style type="text/css">
	.st0{opacity:0.6;}
	.st1{fill:#A2C495;}
	.st2{fill:#ACCAA1;}
	.st3{fill:#FFAFC8;}
</style>
<g>
	<g class="st0">
		<path class="st1" d="M123.94,147.17c11.32-13.77,14.85-26.72,19.08-40.24c2.52-8.08,5.08-16.34,5.08-24.79
			c0-12.52-5.81-24.39-14.33-32.58s-19.56-12.94-30.87-15.12c-7.56-1.45-15.61-1.77-22.82,1.41c-15.81,6.98-22.02,27.37-26.28,45.22
			c-1.69,7.1-3.39,14.21-5.08,21.31c-1.76,7.38-3.53,14.87-3.48,22.44c0.14,19.41,13.59,37.16,30.87,41.8
			S113.08,162.94,123.94,147.17"/>
		<g>
			<g>
				<g>
					<g>
						<polygon class="st2" points="121.79,145.68 121.57,145.73 121.64,146.32 						"/>
						<path class="st2" d="M120.79,148.53c0.11-0.02,0.18,0.09,0.29,0.06l0.09-2.06C120.2,146.73,121.45,148.39,120.79,148.53z"/>
						<path class="st2" d="M120.4,148.86c-0.64,0.33-0.4,0.88-0.36,1.12C119.87,149.53,120.96,149.12,120.4,148.86z"/>
						<path class="st2" d="M68.48,161.81c0.06,0.03,0.13,0.05,0.2,0.07C68.6,161.81,68.53,161.8,68.48,161.81z"/>
						<path class="st2" d="M55.49,153.29l-0.44,0.15c1.19,0.95,2.34,2.03,3.37,3.26c0.56,0.57,1.14,1.14,1.72,1.69
							c0.29,0.27,0.59,0.55,0.9,0.8c0.32,0.23,0.65,0.46,0.99,0.67l-0.26-0.01c0.79,0.61,1.53,1.28,2.37,1.8
							c0.83,0.53,1.65,1.05,2.49,1.55c0.87,0.43,1.74,0.85,2.6,1.28c0.87,0.41,1.79,0.69,2.68,1.03c3.63,1.22,7.4,1.82,11.28,1.95
							c-0.12,0.04-0.17,0.17-0.3,0.21c0.39-0.14,0.82-0.4,1.23-0.34c0.1,0.1-0.13,0.2-0.26,0.24c1.64,0.87,4.82-0.46,5.86-0.01
							c0.45-0.13,0.62-0.46,0.34-0.65c0.74-0.12,1.49-0.23,2.25-0.35c0.75-0.14,1.49-0.34,2.25-0.51l1.13-0.27l1.11-0.35
							c0.74-0.24,1.48-0.47,2.21-0.73c2.9-1.15,5.71-2.55,8.18-4.31c0.3-0.05,0.45,0.09,0.5,0.34c0.98-0.91,1.96-1.8,3-2.61
							c0.97-0.9,2.05-1.66,3.04-2.54c0.99-0.87,2.06-1.67,3-2.6l1.47-1.34l1.36-1.44c-0.1-0.35-0.6,0.19-0.5-0.41
							c-0.7,0.5-1.02,1.23-1.45,1.86c-0.41,0.64-0.83,1.27-1.57,1.61l-0.07-0.35c-0.92,0.63,0.38,0.73-0.75,1.21
							c-0.51,0.11-0.17-0.35-0.34-0.23c-1.68,1.66-3.74,2.94-5.21,4.75c-0.82-0.26-2.14,1.39-3.23,1.23
							c-0.41,0.51-0.98,0.74-0.98,1.23c-3.75,1.76-7.66,3.25-11.76,4.17c-4.09,0.92-8.37,1.26-12.57,0.69
							c-0.51,0.09-1.03,0.14-1.57,0.15c-0.52-0.04-1.05-0.11-1.59-0.2c-0.54-0.1-1.08-0.21-1.62-0.36c-0.53-0.19-1.06-0.4-1.59-0.61
							c-0.53-0.22-1.07-0.41-1.6-0.67c-0.52-0.26-1.04-0.53-1.57-0.79c-1.07-0.47-2.08-1.08-3.18-1.54
							c-0.01-0.05,0.02-0.09,0.07-0.11c-0.77-0.2-1.62-0.63-2.48-1.13c-0.43-0.25-0.86-0.51-1.28-0.78
							c-0.39-0.3-0.77-0.62-1.11-0.93l-1.58-0.55c-4-4.01-7.47-8.49-10.2-13.45c-2.68-4.97-4.46-10.5-4.87-16.13
							c-0.54-6.38,0.67-12.39,1.94-18.31c1.33-5.93,2.67-11.96,3.34-18.43c0.11,0.04,0.2-0.04,0.17,0.29
							c0.62-3.68,1.84-6.88,2.4-10.35l0.12,0.04c0.51-4.34,1.65-8.71,2.97-12.98c1.32-4.27,2.82-8.39,4.04-12.41
							c2.17-4.58,4.85-9.34,8.53-13.38c3.68-4,8.37-7.28,13.58-8.77l0.04,0.24c4.09-1.37,8.45-1.31,12.6-0.74
							c4.18,0.58,8.25,1.67,12.41,2.63c4.13,1.49,8.45,2.78,12.62,4.64c2.09,0.91,4.12,1.99,6.03,3.24
							c1.91,1.25,3.68,2.69,5.19,4.36c1.62,2.31,3.99,4.38,6.14,6.74c2.15,2.33,4.05,4.95,4.61,7.58
							c1.47,5.22,2.69,10.18,3.36,15.31c0.71,5.1,0.66,10.42,0.03,15.79c-1.41,4.76-2.68,9.52-3.95,14.25
							c-1.28,4.71-2.63,9.41-4.94,13.67c-0.39,2.27-1.52,4.42-2.85,6.5c-1.33,2.09-2.81,4.12-3.93,6.35l0.35-0.01
							c-1.65,1.1-0.94,4.13-2.71,4.36l0.05-0.19c-1.11,0.4,0.13,2.76-0.89,2.78l0.2,0.33c-0.6,1-0.4-0.11-1.04,0.53
							c-0.16,0.3,0.43,0.47-0.14,0.93c-0.62-0.36-0.97,0.26-1.34,0.86c-0.39,0.58-0.79,1.15-1.44,0.69
							c0.39-0.49-1.09,0.39-0.48-0.92c-0.37,0.21-1.49,1.75-0.87,2.05c0.45,0.58,0.45,1.57,1.62,1l-0.26-0.52
							c0.65,0.01,0.39-0.08,0.78,0.06c1.01-1.19,1.76-0.87,2.68-1.6c-0.02,0-0.04,0-0.05-0.03c-0.04-1,0.88-1.64,1.31-2.08
							l0.38-0.03c0.71,0.03,0.03-2.16,0.62-1.18c1.59-2.8,3.49-5.95,5.08-9.16c-0.12-0.62,1.22-2.45,0.2-2.07
							c1.19-0.42,2.47-2.78,2.81-3.7c0.06,0.07,0.13,0.14,0.04,0.27c1.77-1.36-0.1-2.48,1.82-3.66c-0.8-0.6,1.42-2.96,0.66-4.29
							c0.27-0.14,0.48-0.14,0.62-0.01c1.06-3.03,2.45-6.29,3.28-8.84c-0.14-2.43,2.02-5.18,1.47-7.43c0.71-1.5,1.94-3.95,2.05-6.33
							l0.08,0.25c0.6-2.55,1.18-5.85,0.69-7.75c1.23-0.61,1.16-1.8,1.62-2.93c-0.18-0.92-0.16-2.29-0.24-3.77
							c-0.08-1.48-0.21-3.09-0.58-4.43c0.51-0.48-0.47-2.22,0.25-2.46c-1.26-3.74-2.63-7.73-4.29-11.71
							c-1.64-3.98-3.6-7.92-5.74-11.5l0.12,0.06c-1.01-0.58-2.47-0.93-3.59-1.34c-0.02-0.12,0.08-0.2,0.23-0.03
							c-0.53-0.5-0.9-1.12-1.31-1.72c-0.39-0.61-0.79-1.23-1.39-1.67c0.09-0.08,0.09-0.08,0.35-0.01c-1.23-0.69-1.74-2.38-3.4-2.95
							l0.05-0.21l-0.99-0.41c0.17-0.18,0.43-0.46,0.82-0.05c-5-4.02-10.97-6.84-17.12-8.72c-3.09-0.94-6.23-1.66-9.39-2.23
							c-3.16-0.57-6.36-1.01-9.6-1.2l0.49-0.21c-0.85,0.09-1.69,0.22-2.53,0.35c0.01-0.13,0.13-0.19,0.25-0.24
							c-3.25-0.45-6.57,0.62-9.61,1.38c-0.02-0.12,0.38-0.49-0.08-0.5c-1.05,0.64-2,0.75-2.81,0.92c-0.8,0.18-1.44,0.41-1.66,1.33
							c-0.12-0.01-0.33-0.26-0.16-0.48c-0.71,0.42-1.42,0.85-2.14,1.27c-0.69,0.47-1.34,0.97-2.02,1.45
							c-0.69,0.46-1.31,1.01-1.93,1.55c-0.61,0.56-1.29,1.04-1.84,1.65l-1.74,1.76c-0.55,0.61-1.07,1.25-1.61,1.86
							c-0.55,0.61-1.04,1.26-1.52,1.92c-0.48,0.66-1,1.29-1.45,1.97c-0.88,2.63-2.23,5.07-3.39,7.66c-1.22,2.56-2.26,5.23-2.71,7.97
							l-0.23-0.11c-0.74,3.5-1.8,6.96-2.85,10.48c-1.04,3.52-2.09,7.08-2.85,10.66c-0.8,2.93-0.99,4.99-1.68,7.97l-0.33,0
							c0,5.28-3.6,10.24-3.47,15.78l-0.34-0.45c0.47,0.95-0.9,3.14,0.29,3.05l-0.52,0.86c0.41,1.93-0.03,3.51-0.5,5.22
							c-0.46,1.7-0.96,3.56-0.53,5.81l-0.26-0.3c0.15,1.2,0.35,2.57,0.16,3.45c-0.05-0.14-0.12-0.07-0.21-0.35
							c-0.22,0.94-0.32,1.92-0.28,2.91c0.09,0.98,0.27,1.97,0.48,2.96c0.53,1.95,1.21,3.87,1.81,5.74l-0.62-0.28
							c0.28,0.42,0.52,0.95,0.74,1.54c0.23,0.59,0.48,1.24,0.73,1.91c0.25,0.67,0.47,1.37,0.77,2.02c0.31,0.64,0.62,1.26,0.95,1.79
							l-0.28-0.03l0.85,0.99l-0.41,0.25c0.39,0.72,0.83,1.41,1.26,2.09l0.66,1l0.74,0.94l1.47,1.86
							C54.46,152.09,54.98,152.68,55.49,153.29z"/>
						<path class="st2" d="M83.85,167.55c-0.01-0.01-0.02-0.01-0.03-0.02C83.72,167.57,83.77,167.57,83.85,167.55z"/>
						<path class="st2" d="M128.29,145.18c-0.11,0.11-0.21,0.19-0.32,0.27C128.06,145.48,128.19,145.27,128.29,145.18z"/>
					</g>
				</g>
			</g>
		</g>
	</g>
	<path class="st3" d="M32.57,48.43c1.13,0.27,2.36,0.13,3.5,0c2.18-0.24,3.31-0.93,3.71-3.22c0.26-1.47-0.04-3.2-0.67-4.54
		c-0.7-1.5-2.43-2.73-4.17-2.87c-0.3,0.25-0.71,0.38-1.21,0.3c-0.18-0.03-0.35-0.03-0.51-0.03c-0.01,0-0.01,0-0.02,0.01
		c-0.3,0.13-0.57,0.16-0.82,0.12c-2.44,0.76-3.19,4.77-2.73,6.86C30.06,46.87,30.59,47.95,32.57,48.43z"/>
	<path class="st3" d="M37.82,64.01c-0.44,0.15-0.92,0.13-1.3-0.11c-0.41,0.03-0.83,0.1-1.28,0.23c-0.25,0.08-0.49,0.09-0.71,0.06
		c-1.56,0.47-2.65,1.49-2.87,3.74c-0.28,2.8,0.47,5.16,3.57,4.88c2.99-0.27,4.71-1.33,5.16-4.44C40.72,66,39.61,64.42,37.82,64.01z"
		/>
	<path class="st3" d="M120.66,75.11c-0.04-0.02-0.08-0.05-0.12-0.08c-0.01,0.01-0.02,0-0.04-0.02c-0.07-0.05-0.15-0.09-0.21-0.15
		c-0.08-0.02-0.18-0.02-0.34,0.03c-0.8,0.24-1.47,0.37-2.23,0.76c-1.3,0.67-2.1,1.48-2.57,2.9c-0.38,1.13-0.51,2.55-0.02,3.66
		c0.72,1.62,2.36,1.87,3.99,1.8c2.4-0.1,3.26-1.69,3.49-3.93c0.12-1.14,0.05-2.72-0.6-3.81C121.34,76.24,120.69,75.79,120.66,75.11z
		"/>
	<path class="st3" d="M109.72,91.82c-0.14,0.08-0.29,0.17-0.48,0.26c-1.01,0.48-2.2,0.61-2.99,1.46c-1.23,1.35-1.6,4.53,0.3,5.4
		c2.44,1.12,4.19-0.84,4.35-3.13c0.04-0.52,0.06-1.05,0.04-1.58c-0.03-0.67-0.43-1.48,0.22-1.56
		C110.45,92.75,109.95,92.34,109.72,91.82z"/>
	<path class="st3" d="M56.26,34.9c-0.18,0.01-0.33,0.04-0.46,0.08c-0.19,0.21-0.45,0.35-0.76,0.39c-0.26,0.21-0.51,0.44-0.87,0.65
		c-0.47,0.26-1.09,0.48-1.61,0.17c-0.13-0.07-0.25-0.15-0.38-0.22c-0.16-0.1-0.31-0.21-0.44-0.34c-0.5,0.32-0.9,0.81-1.13,1.51
		c-0.52,1.53-0.6,3.27,0.33,4.68c1.34,2.03,4.08,2.02,6.12,1.11c2.41-1.07,3.35-3.34,2.4-5.85C58.94,35.73,57.76,34.8,56.26,34.9z"
		/>
	<path class="st3" d="M86.07,30.44c-0.9-0.44-1.7-0.56-2.65-0.82c-0.19-0.05-0.3-0.05-0.4-0.02c-0.11,0.13-0.26,0.24-0.43,0.34
		c-0.03,0.79-0.77,1.33-1.55,1.38c-0.73,1.3-0.76,3.16-0.58,4.5c0.34,2.62,1.4,4.48,4.23,4.51c1.92,0.02,3.84-0.32,4.64-2.25
		c0.55-1.33,0.34-3-0.14-4.31C88.59,32.11,87.63,31.19,86.07,30.44z"/>
	<path class="st3" d="M96.56,49.49c-0.22-0.1-0.4-0.19-0.56-0.28c-0.26,0.62-0.84,1.12-1.69,1.04c0.76,0.07,0.32,1.04,0.31,1.83
		c-0.01,0.62,0.03,1.24,0.09,1.85c0.27,2.69,2.38,4.94,5.22,3.55c2.21-1.08,1.67-4.82,0.18-6.36
		C99.18,50.13,97.77,50.02,96.56,49.49z"/>
	<path class="st3" d="M163.48,81c-0.21,0.03-0.43,0.02-0.68-0.08c-0.01,0-0.01,0-0.02,0c-0.14,0-0.28,0.01-0.43,0.04
		c-0.42,0.08-0.77-0.03-1.03-0.23c-1.48,0.15-2.92,1.24-3.48,2.53c-0.5,1.15-0.72,2.63-0.46,3.87c0.4,1.93,1.37,2.49,3.23,2.65
		c0.97,0.08,2.02,0.17,2.97-0.08c1.67-0.45,2.1-1.38,2.4-2.94C166.33,84.98,165.59,81.57,163.48,81z"/>
	<path class="st3" d="M162.28,103.14c-0.19,0.03-0.39,0.02-0.6-0.03c-0.4-0.11-0.77-0.15-1.13-0.16c-0.31,0.19-0.69,0.22-1.05,0.12
		c-1.52,0.39-2.43,1.76-2.08,3.77c0.45,2.63,1.94,3.49,4.48,3.65c2.63,0.17,3.22-1.86,2.92-4.23
		C164.57,104.34,163.62,103.5,162.28,103.14z"/>
	<path class="st3" d="M147.01,79.27c-0.11,0.11-0.23,0.21-0.37,0.3c-0.1,0.07-0.21,0.13-0.31,0.2c-0.43,0.27-0.97,0.11-1.37-0.11
		c-0.32-0.17-0.53-0.37-0.77-0.54c-0.24-0.03-0.44-0.13-0.6-0.28c-0.13-0.04-0.27-0.07-0.44-0.08c-1.28-0.05-2.26,0.76-2.67,1.93
		c-0.75,2.15,0.1,4.06,2.17,4.91c1.75,0.72,4.08,0.67,5.18-1.09c0.76-1.21,0.65-2.69,0.17-3.98
		C147.79,79.94,147.44,79.53,147.01,79.27z"/>
	<g>
		<g>
			<path d="M39.73,48.39c-0.13-0.04-0.26-0.08-0.38-0.12c-1.71-0.54-3.07,1.41-1.67,2.72c4.98,4.64,10.55,8.57,15.57,13.16
				c5.19,4.75,9.92,10.17,14.37,15.61c4.43,5.41,8.44,11.14,12.25,17c4.22,6.5,8.98,12.9,12.44,19.84c0.91,1.83,3.93,0.71,3-1.14
				c-3.31-6.64-7.77-12.67-11.77-18.91c-4.12-6.45-8.47-12.76-13.33-18.69c-4.23-5.16-8.71-10.24-13.52-14.87
				c-5.37-5.18-11.54-9.42-17-14.51c-0.56,0.91-1.11,1.81-1.67,2.72c0.13,0.04,0.26,0.08,0.38,0.12
				C40.36,51.94,41.7,49.01,39.73,48.39L39.73,48.39z"/>
		</g>
	</g>
	<g>
		<g>
			<path d="M84.76,102.82c0.03,0.08,0.05,0.16,0.08,0.24c1-0.38,2-0.76,3-1.14c-1.89-5.04-1.95-11.07-2.44-16.41
				c-0.44-4.82-0.73-9.65-0.88-14.49c-0.29-9.1,1.45-18.5,0.51-27.51c-0.21-2.06-3.41-1.76-3.2,0.3c1,9.64-0.83,19.84-0.44,29.59
				c0.22,5.53,0.64,11.04,1.23,16.55c0.47,4.44,0.64,8.91,2.22,13.12c0.73,1.94,3.67,0.81,3-1.14c-0.03-0.08-0.05-0.16-0.08-0.24
				C87.09,99.72,84.09,100.86,84.76,102.82L84.76,102.82z"/>
		</g>
	</g>
	<g>
		<g>
			<path d="M34.27,34.93c-5.02-0.78-8.86,5.1-8,9.7c0.44,2.32,0.79,4.45,2.88,5.83c2.14,1.41,4.76,1.44,7.22,1.17
				c2.32-0.26,4.61-0.81,5.74-3.08c1.18-2.38,1.21-5.32,0.45-7.83c-1.26-4.17-6.11-7.56-10.49-5.65c-1.89,0.82-0.76,3.83,1.14,3
				c2.18-0.95,4.97,0.58,5.91,2.6c0.62,1.34,0.93,3.07,0.67,4.54c-0.41,2.29-1.53,2.98-3.71,3.22c-1.14,0.13-2.37,0.27-3.5,0
				c-1.98-0.48-2.51-1.56-2.91-3.38c-0.54-2.43,0.57-7.5,4.08-6.95C35.78,38.42,36.31,35.25,34.27,34.93L34.27,34.93z"/>
		</g>
	</g>
	<g>
		<g>
			<path d="M59.26,65.78c-0.49-3.85-0.88-7.57-1.67-11.39c-0.64-3.11-0.57-6.59-1.6-9.57c-0.67-1.96-3.68-0.81-3,1.14
				C54.03,49,54,52.81,54.66,55.99c0.7,3.38,0.96,6.68,1.4,10.08C56.32,68.13,59.53,67.83,59.26,65.78L59.26,65.78z"/>
		</g>
	</g>
	<g>
		<g>
			<path d="M54.96,32.16c-5.42-1.4-8.81,3.93-7.79,8.81c1.01,4.84,5.9,6.67,10.29,5.23c4.36-1.44,6.59-5.56,5.09-9.98
				c-0.74-2.16-2.23-3.71-4.46-4.32c-1.07-0.29-2.08-0.27-3.16,0.03c-1.22,0.33-1.68,0.94-2.67,1.5c0.54-0.06,1.07-0.11,1.61-0.17
				c-0.12-0.07-0.25-0.15-0.38-0.22c0.31,0.58,0.62,1.15,0.93,1.73c0.03-0.18,0.06-0.36,0.09-0.54c0.33-2.04-2.84-2.57-3.17-0.53
				c-0.03,0.18-0.06,0.36-0.09,0.54c-0.13,0.77,0.3,1.36,0.93,1.73c0.13,0.07,0.25,0.15,0.38,0.22c0.52,0.31,1.14,0.1,1.61-0.17
				c0.78-0.44,1.02-1.05,2.1-1.12c1.5-0.1,2.68,0.83,3.2,2.18c0.95,2.51,0.02,4.77-2.4,5.85c-2.04,0.91-4.78,0.92-6.12-1.11
				c-0.93-1.4-0.85-3.14-0.33-4.68c0.58-1.72,2.11-2.25,3.83-1.8C56.43,35.85,56.95,32.68,54.96,32.16L54.96,32.16z"/>
		</g>
	</g>
	<g>
		<g>
			<path d="M64.57,73.15c-2.11,0.65-5.04-1.06-7.02-1.7c-1.84-0.59-3.7-1.07-5.54-1.68c-3.19-1.06-6.23-2.09-9.63-1.64
				c0.48,0.22,0.96,0.43,1.45,0.65c-0.06-0.1-0.13-0.2-0.19-0.3c-1.12-1.74-3.71,0.16-2.59,1.9c0.06,0.1,0.13,0.2,0.19,0.3
				c0.29,0.45,0.92,0.72,1.45,0.65c4.47-0.59,9.31,1.73,13.55,3.05c3.14,0.98,6.14,2.8,9.48,1.77
				C67.69,75.54,66.54,72.54,64.57,73.15L64.57,73.15z"/>
		</g>
	</g>
	<g>
		<g>
			<path d="M38.9,61.95c-0.03-0.1-0.07-0.21-0.1-0.31c-0.23-0.7-0.96-1.05-1.65-1.03c-5.14,0.14-8.66,2.47-8.73,7.97
				c-0.07,5,2.68,8.06,7.72,7.36c2.11-0.29,4.46-0.88,5.82-2.66c1.31-1.72,1.87-4.53,1.72-6.65c-0.37-4.98-5.24-6.79-9.58-5.5
				c-1.98,0.59-0.83,3.59,1.14,3c3.21-0.96,5.63,0.87,5.14,4.24c-0.45,3.11-2.17,4.17-5.16,4.44c-3.09,0.28-3.85-2.08-3.57-4.88
				c0.35-3.48,2.74-4.04,5.8-4.13c-0.55-0.34-1.1-0.69-1.65-1.03c0.03,0.1,0.07,0.21,0.1,0.31C36.55,65.05,39.55,63.91,38.9,61.95
				L38.9,61.95z"/>
		</g>
	</g>
	<g>
		<g>
			<path d="M81.28,27.02c-4.24,1.76-4.76,7.35-3.57,11.24c1.58,5.14,7.6,6.99,12.21,4.08c4.49-2.84,3.44-10.57-0.33-13.57
				c-1.94-1.54-4.76-2.74-7.24-2.19c-1.79,0.4-3.88,1.68-2.91,3.78c0.86,1.87,3.87,0.74,3-1.14c0.58,1.26-0.03,0.12,0.98,0.4
				c0.95,0.26,1.75,0.39,2.65,0.82c1.55,0.75,2.52,1.68,3.12,3.33c0.48,1.31,0.68,2.98,0.14,4.31c-0.79,1.93-2.72,2.27-4.64,2.25
				c-2.83-0.04-3.89-1.89-4.23-4.51c-0.25-1.9-0.12-4.92,1.96-5.78C84.33,29.23,83.19,26.23,81.28,27.02L81.28,27.02z"/>
		</g>
	</g>
	<g>
		<g>
			<path d="M82.56,70.44c3.04,0.22,4.8-3.57,6.5-5.61c1.25-1.5,2.37-3.09,3.54-4.65c0.79-1.05,1.76-1.91,1.98-3.25
				c0.34-2.04-2.83-2.57-3.17-0.53c-0.11,0.67-1.16,1.55-1.57,2.12c-0.79,1.08-1.56,2.17-2.4,3.22c-0.77,0.97-1.6,1.9-2.38,2.86
				c-0.16,0.2-1.75,2.69-1.98,2.67C81.05,67.13,80.5,70.3,82.56,70.44L82.56,70.44z"/>
		</g>
	</g>
	<g>
		<g>
			<path d="M94.85,47.08c-3.64-0.33-3.57,4.32-3.36,6.84c0.39,4.76,3.58,7.99,8.52,6.85c4.34-1,5.42-5.49,3.98-9.34
				c-0.85-2.26-2.38-3.57-4.62-4.36c-2.5-0.88-3.5-2.15-6.22-0.97c-1.89,0.82-0.76,3.83,1.14,3c1.09-0.47,1.32-0.04,2.27,0.38
				c1.2,0.53,2.61,0.64,3.56,1.63c1.49,1.55,2.03,5.28-0.18,6.36c-2.84,1.39-4.95-0.86-5.22-3.55c-0.06-0.61-0.1-1.24-0.09-1.85
				c0.01-0.78,0.45-1.76-0.31-1.83C96.37,50.44,96.91,47.27,94.85,47.08L94.85,47.08z"/>
		</g>
	</g>
	<g>
		<g>
			<path d="M157.5,89.84c0.11-0.04,0.22-0.07,0.32-0.11c1.44-0.5,2.64,1.13,1.48,2.27c-4.12,4.06-8.76,7.53-12.92,11.54
				c-4.3,4.15-8.19,8.87-11.85,13.59c-3.64,4.69-6.92,9.66-10.01,14.73c-3.43,5.62-7.33,11.17-10.11,17.14
				c-0.74,1.58-3.32,0.69-2.58-0.9c2.66-5.72,6.31-10.94,9.56-16.34c3.36-5.57,6.9-11.04,10.9-16.18c3.48-4.48,7.17-8.9,11.14-12.94
				c4.44-4.52,9.59-8.27,14.11-12.71c0.49,0.76,0.99,1.51,1.48,2.27c-0.11,0.04-0.22,0.07-0.32,0.11
				C157.05,92.86,155.84,90.41,157.5,89.84L157.5,89.84z"/>
		</g>
	</g>
	<g>
		<g>
			<path d="M120.5,137.11c-0.02,0.07-0.04,0.14-0.06,0.2c-0.86-0.3-1.72-0.6-2.58-0.9c1.49-4.33,1.4-9.45,1.7-14
				c0.27-4.1,0.4-8.22,0.41-12.33c0.04-7.73-1.65-15.69-1.07-23.36c0.13-1.75,2.86-1.57,2.73,0.18c-0.63,8.21,1.16,16.84,1.05,25.12
				c-0.06,4.7-0.29,9.4-0.66,14.08c-0.3,3.78-0.34,7.59-1.58,11.2c-0.57,1.67-3.1,0.78-2.58-0.9c0.02-0.07,0.04-0.14,0.06-0.2
				C118.44,134.53,121.02,135.43,120.5,137.11L120.5,137.11z"/>
		</g>
	</g>
	<g>
		<g>
			<path d="M161.83,78.28c4.25-0.78,7.64,4.13,7.02,8.06c-0.32,1.98-0.57,3.8-2.32,5.02c-1.78,1.25-4.01,1.33-6.1,1.16
				c-1.98-0.17-3.94-0.58-4.95-2.49c-1.06-1.99-1.15-4.49-0.56-6.64c0.98-3.57,5.02-6.56,8.78-5.04c1.62,0.65,0.73,3.24-0.9,2.58
				c-1.88-0.76-4.21,0.61-4.96,2.34c-0.5,1.15-0.72,2.63-0.46,3.87c0.4,1.93,1.37,2.49,3.23,2.65c0.97,0.08,2.02,0.18,2.97-0.08
				c1.67-0.45,2.1-1.38,2.4-2.94c0.4-2.07-0.66-6.36-3.63-5.81C160.63,81.27,160.1,78.59,161.83,78.28L161.83,78.28z"/>
		</g>
	</g>
	<g>
		<g>
			<path d="M141.31,105.05c0.33-3.28,0.57-6.45,1.16-9.71c0.48-2.66,0.34-5.61,1.14-8.17c0.53-1.68,3.11-0.78,2.58,0.9
				c-0.82,2.6-0.7,5.84-1.19,8.56c-0.52,2.89-0.67,5.7-0.96,8.6C143.86,106.98,141.13,106.8,141.31,105.05L141.31,105.05z"/>
		</g>
	</g>
	<g>
		<g>
			<path d="M144.19,76.4c4.57-1.32,7.58,3.14,6.82,7.31c-0.75,4.13-4.86,5.81-8.62,4.68c-3.73-1.12-5.73-4.57-4.55-8.36
				c0.58-1.85,1.81-3.21,3.69-3.78c0.91-0.27,1.76-0.27,2.69-0.05c1.04,0.25,1.45,0.76,2.3,1.21c-0.46-0.04-0.91-0.07-1.37-0.11
				c0.1-0.07,0.21-0.13,0.31-0.2c-0.25,0.5-0.5,0.99-0.75,1.49c-0.03-0.15-0.06-0.31-0.09-0.46c-0.33-1.73,2.35-2.25,2.68-0.52
				c0.03,0.15,0.06,0.31,0.09,0.46c0.12,0.65-0.22,1.16-0.75,1.49c-0.1,0.07-0.21,0.13-0.31,0.2c-0.43,0.27-0.97,0.11-1.37-0.11
				c-0.67-0.36-0.89-0.87-1.81-0.9c-1.28-0.05-2.26,0.76-2.67,1.93c-0.75,2.15,0.1,4.06,2.17,4.91c1.75,0.72,4.08,0.67,5.18-1.09
				c0.76-1.21,0.65-2.69,0.17-3.98c-0.53-1.45-1.85-1.86-3.29-1.45C143.02,79.57,142.52,76.88,144.19,76.4L144.19,76.4z"/>
		</g>
	</g>
	<g>
		<g>
			<path d="M136.97,111.44c1.81,0.5,4.26-1.02,5.92-1.6c1.55-0.54,3.12-0.99,4.66-1.55c2.69-0.98,5.24-1.92,8.15-1.62
				c-0.4,0.2-0.81,0.39-1.21,0.59c0.05-0.09,0.1-0.17,0.16-0.26c0.91-1.5,3.16,0.05,2.25,1.55c-0.05,0.09-0.1,0.17-0.16,0.26
				c-0.24,0.39-0.77,0.63-1.21,0.59c-3.81-0.4-7.87,1.68-11.44,2.9c-2.64,0.9-5.15,2.52-8.01,1.72
				C134.38,113.54,135.28,110.97,136.97,111.44L136.97,111.44z"/>
		</g>
	</g>
	<g>
		<g>
			<path d="M158.52,101.33c0.03-0.09,0.05-0.18,0.08-0.26c0.18-0.6,0.79-0.91,1.38-0.91c4.37,0,7.41,1.9,7.6,6.57
				c0.17,4.24-2.09,6.91-6.39,6.43c-1.8-0.2-3.81-0.64-5.01-2.13c-1.15-1.43-1.7-3.81-1.61-5.61c0.2-4.24,4.29-5.89,8.01-4.89
				c1.7,0.46,0.79,3.03-0.9,2.58c-2.75-0.74-4.76,0.87-4.27,3.72c0.45,2.63,1.94,3.49,4.48,3.65c2.63,0.17,3.22-1.86,2.92-4.23
				c-0.38-2.95-2.42-3.37-5.02-3.37c0.46-0.3,0.92-0.61,1.38-0.91c-0.03,0.09-0.05,0.18-0.08,0.26
				C160.59,103.92,158.01,103.01,158.52,101.33L158.52,101.33z"/>
		</g>
	</g>
	<g>
		<g>
			<path d="M121.71,72.63c3.64,1.4,4.22,6.13,3.29,9.47c-1.23,4.4-6.29,6.11-10.28,3.74c-3.88-2.31-3.16-8.9-0.03-11.53
				c1.61-1.35,3.98-2.44,6.1-2.03c1.53,0.3,3.34,1.34,2.56,3.15c-0.69,1.61-3.27,0.72-2.58-0.9c-0.47,1.08,0.03,0.1-0.82,0.36
				c-0.8,0.24-1.47,0.37-2.23,0.76c-1.3,0.67-2.1,1.48-2.57,2.9c-0.38,1.13-0.51,2.55-0.02,3.66c0.72,1.62,2.36,1.87,3.99,1.8
				c2.4-0.1,3.26-1.69,3.49-3.93c0.17-1.62-0.01-4.18-1.8-4.87C119.18,74.58,120.07,72,121.71,72.63L121.71,72.63z"/>
		</g>
	</g>
	<g>
		<g>
			<path d="M121.62,109.55c-2.58,0.25-4.16-2.92-5.65-4.62c-1.1-1.25-2.08-2.57-3.12-3.87c-0.69-0.87-1.54-1.59-1.76-2.72
				c-0.34-1.73,2.34-2.25,2.68-0.52c0.11,0.57,1.02,1.29,1.38,1.76c0.69,0.9,1.38,1.81,2.11,2.68c0.68,0.81,1.4,1.58,2.08,2.38
				c0.14,0.16,1.55,2.24,1.74,2.23C122.83,106.7,123.37,109.38,121.62,109.55L121.62,109.55z"/>
		</g>
	</g>
	<g>
		<g>
			<path d="M110.64,89.99c3.09-0.37,3.13,3.59,3.01,5.74c-0.23,4.05-2.86,6.87-7.08,6.02c-3.71-0.75-4.73-4.54-3.59-7.85
				c0.67-1.94,1.94-3.09,3.82-3.81c2.1-0.8,2.92-1.91,5.26-0.97c1.63,0.65,0.74,3.23-0.9,2.58c-0.94-0.37-1.12,0-1.92,0.38
				c-1.01,0.48-2.2,0.61-2.99,1.46c-1.23,1.35-1.6,4.53,0.3,5.4c2.44,1.12,4.19-0.84,4.35-3.13c0.04-0.52,0.06-1.05,0.04-1.58
				c-0.03-0.67-0.43-1.48,0.22-1.56C109.43,92.87,108.89,90.19,110.64,89.99L110.64,89.99z"/>
		</g>
	</g>
</g>
</svg>
