<?xml version="1.0" encoding="utf-8"?>
<!-- Generator: Adobe Illustrator 23.0.1, SVG Export Plug-In . SVG Version: 6.00 Build 0)  -->
<svg version="1.1" id="Capa_1" xmlns="http://www.w3.org/2000/svg" xmlns:xlink="http://www.w3.org/1999/xlink" x="0px" y="0px"
	 viewBox="0 0 194.12 194.12" style="enable-background:new 0 0 194.12 194.12;" xml:space="preserve">
<style type="text/css">
	.st0{opacity:0.9;}
	.st1{fill:#E1DDC5;}
	.st2{fill:#E4E1CB;}
</style>
<g>
	<g class="st0">
		<path class="st1" d="M145.13,127.83c1.7-16.59-2.05-28.76-5.57-41.73c-2.1-7.75-4.27-15.65-8.46-22.49
			c-6.2-10.11-16.45-16.91-26.92-19.42s-21.13-1.02-30.73,2.68c-6.41,2.47-12.63,6.1-16.48,12.15c-8.44,13.27-3.02,32.74,2.61,49.23
			c2.24,6.56,4.48,13.12,6.73,19.68c2.33,6.82,4.7,13.72,8.49,19.81c9.72,15.62,28.63,23.48,43.93,18.89
			S144.76,145.81,145.13,127.83"/>
		<g>
			<g>
				<g>
					<g>
						<polygon class="st2" points="141.53,127.76 141.32,127.9 141.86,128.31 						"/>
						<path class="st2" d="M142.63,130.43c0.11-0.07,0.27-0.02,0.38-0.09c-0.5-0.56-1-1.11-1.5-1.64
							C140.56,129.32,143.26,130.01,142.63,130.43z"/>
						<path class="st2" d="M142.44,130.88c-0.44,0.56,0.27,0.88,0.5,1.06C142.39,131.66,143.27,130.82,142.44,130.88z"/>
						<path class="st2" d="M109.56,165.78c0.06,0,0.13-0.02,0.19-0.04C109.65,165.71,109.59,165.73,109.56,165.78z"/>
						<path class="st2" d="M95.16,165.37l-0.37,0.5c1.51,0,2.85,0.56,4.27,1.01c1.39,0.55,2.87,0.96,4.34,1.04l-0.23,0.17
							c3.66,0.76,7.35,0.67,10.84-0.06c3.49-0.74,6.79-2.1,9.86-3.96c-0.07,0.1-0.03,0.28-0.1,0.39c0.23-0.32,0.38-0.85,0.74-1
							c0.15,0.07,0.04,0.3-0.04,0.41c0.88,0.04,1.82-0.63,2.59-1.37c0.76-0.76,1.41-1.49,2.03-1.46c0.27-0.35,0.15-0.8-0.22-0.89
							c2.09-1.81,4.01-3.94,5.68-6.26c1.58-2.38,2.95-4.91,3.81-7.55c0.24-0.17,0.51-0.1,0.78,0.12c0.16-1.25,0.38-2.46,0.69-3.62
							c0.22-1.2,0.64-2.32,0.93-3.49c0.31-1.16,0.72-2.3,0.99-3.48l0.47-1.76l0.34-1.78c-0.4-0.23-0.51,0.43-0.88-0.09
							c-0.37,0.72-0.16,1.44-0.08,2.15c0.09,0.71,0.15,1.41-0.36,2.01l-0.36-0.26c-0.46,0.92,0.99,0.44,0.21,1.33
							c-0.44,0.31-0.47-0.22-0.56-0.05c-0.38,2.11-1.39,4.07-1.27,6.3c-1.02,0.1-0.92,2.13-2.08,2.43c0.06,0.64-0.28,1.09,0.14,1.56
							c-2.01,3.18-4.19,6.27-6.81,9.02c-2.61,2.74-5.7,5.12-9.22,6.61c-1.3,1.5-3.31,2.07-5.37,2.29c-1.04,0.12-2.11,0.06-3.16,0.15
							c-1.07-0.03-2.13,0.03-3.2,0.18c-0.03-0.06-0.02-0.13,0-0.17c-0.7,0.18-1.57,0.3-2.47,0.35c-0.9-0.01-1.84-0.15-2.66-0.35
							c-0.51,0.2-1.02,0.3-1.55,0.45c-4.92-1.74-9.65-3.81-13.96-6.69c-4.3-2.85-8.27-6.42-10.96-10.84
							c-3.23-4.89-5-10.24-6.86-15.53c-1.83-5.32-3.87-10.69-6.89-15.98c0.16-0.04,0.22-0.16,0.38,0.11
							c-1.44-3.16-1.88-6.34-3.27-9.3l0.16-0.04c-1.97-3.58-3.22-7.57-4.29-11.56c-1.08-4-1.96-7.94-3.29-11.64
							c-0.62-4.66-0.93-9.68-0.3-14.68c0.72-4.96,2.48-9.93,5.65-13.83l0.24,0.24c2.33-3.25,5.84-5.33,9.4-6.83
							c3.6-1.49,7.34-2.53,11.06-3.82c3.99-0.69,7.98-1.8,12.18-2.39c2.09-0.28,4.23-0.42,6.35-0.3c2.12,0.12,4.21,0.54,6.16,1.28
							c2.27,1.42,5.12,1.92,7.99,2.76c2.84,0.82,5.66,2.01,7.13,4.14c3.27,3.95,6.3,7.46,9.26,11.19c2.92,3.73,5.63,7.86,7.99,12.35
							c1.05,4.5,2.55,8.83,3.98,13.14c1.42,4.3,2.75,8.66,2.76,13.21c1.04,1.93,1.08,4.21,0.94,6.52c-0.15,2.32-0.47,4.66-0.16,6.95
							l0.41-0.19c-1.14,1.7,1.94,3.67,0.07,4.75l-0.08-0.17c-0.97,0.86,2.24,2.07,1.1,2.61l0.47,0.16c0.09,1.09-0.54,0.11-0.77,0.94
							c0.04,0.31,0.86,0.15,0.56,0.8c-0.97,0.02-0.89,0.68-0.86,1.34c0.02,0.65,0.01,1.3-1.08,1.24c0.05-0.57-0.92,0.83-1.26-0.49
							c-0.25,0.35-0.29,2.1,0.64,2.04c0.96,0.25,1.74,1.04,2.6,0.02l-0.69-0.29c0.74-0.3,0.38-0.25,0.92-0.33
							c0.21-1.44,1.28-1.55,1.77-2.59c-0.02,0.01-0.04,0.02-0.08,0c-0.82-0.77-0.27-1.74-0.12-2.31l0.41-0.22
							c0.84-0.34-1.61-1.71-0.18-1.24c-0.3-3.01-0.43-6.45-0.81-9.77c-0.57-0.41-0.27-2.54-1.21-1.69c1.1-0.97,1-3.5,0.8-4.4
							c0.12,0.01,0.25,0.03,0.23,0.18c1.19-2.05-1.78-1.82-0.27-3.83c-1.35,0.02-0.23-3.07-1.98-3.63c0.24-0.27,0.48-0.4,0.73-0.38
							c-0.67-2.92-1.07-6.21-1.66-8.63c-1.69-1.74-0.83-5.09-2.89-6.45c-0.07-1.56-0.11-4.16-1.4-6.04l0.25,0.14
							c-0.82-2.31-1.97-5.22-3.58-6.39c1.15-1.27,0.43-2.16,0.41-3.36c-1.35-1.23-2.79-4.38-4.83-6.15c0.36-0.74-1.5-1.54-0.75-2.28
							c-3.03-2.31-6.03-4.89-9.15-7.48c-3.14-2.55-6.4-5.14-9.73-7.36l0.13-0.02c-1.16,0.1-2.7,0.87-3.87,1.23
							c-0.06-0.12,0.01-0.28,0.2-0.2c-1.34-0.27-2.27-1.63-3.69-1.79c0.05-0.16,0.05-0.16,0.31-0.26c-0.69,0.04-1.29-0.3-1.95-0.61
							c-0.65-0.32-1.37-0.57-2.2-0.3l-0.04-0.29c-0.35,0.08-0.69,0.14-1.03,0.23c0.07-0.33,0.18-0.85,0.69-0.65
							c-6-1.12-12.28-0.49-18.15,1.06c-2.95,0.77-5.82,1.77-8.61,2.91c-2.79,1.13-5.55,2.38-8.24,3.84l0.23-0.51
							c-0.6,0.55-1.18,1.13-1.75,1.72c-0.08-0.15-0.03-0.28,0.02-0.41c-1.44,0.57-2.68,1.57-3.78,2.69
							c-1.11,1.12-2.05,2.36-3.07,3.45c-0.12-0.12-0.07-0.69-0.49-0.48c-0.2,0.58-0.48,1-0.79,1.35c-0.32,0.34-0.66,0.61-0.95,0.89
							c-0.6,0.53-0.96,1.08-0.39,2.06c-0.13,0.04-0.54-0.11-0.57-0.39c-2.67,5.79-3.67,12.05-3.89,18.12c0.49,1.25,0.73,2.53,1,3.81
							c0.12,0.64,0.21,1.29,0.29,1.94c0.1,0.65,0.19,1.3,0.29,1.95c0.36,2.61,0.86,5.24,2.11,7.55l-0.35,0.06
							c1.37,3.06,2.25,6.3,3.13,9.6c0.88,3.29,1.74,6.64,2.96,9.8c0.78,2.71,1.79,4.38,2.72,7.05l-0.39,0.21
							c3.13,3.97,1.8,9.96,5.19,14.07l-0.68-0.12c1.12,0.42,0.73,2.95,2.11,2.13l-0.14,0.99c1.57,1.21,1.92,2.69,2.27,4.32
							c0.35,1.61,0.72,3.4,2.3,4.9l-0.46-0.06c0.77,0.84,1.62,1.81,1.75,2.69c-0.11-0.08-0.17,0.03-0.39-0.15
							c0.13,0.93,0.52,1.76,0.99,2.56c0.24,0.39,0.49,0.79,0.79,1.14c0.31,0.35,0.64,0.69,0.97,1.02c1.31,1.37,2.92,2.44,4.17,3.76
							l-0.79,0.21c0.94,0.32,1.88,1.15,2.83,2.08c1.03,0.84,2.04,1.83,3.12,2.33l-0.31,0.19l1.25,0.28l-0.34,0.57
							C89.55,163.5,92.42,164.31,95.16,165.37z"/>
						<path class="st2" d="M124.46,163.86c-0.01,0-0.02,0-0.04,0C124.37,163.96,124.41,163.93,124.46,163.86z"/>
						<path class="st2" d="M148.46,124.12c-0.05,0.14-0.09,0.26-0.15,0.37C148.44,124.47,148.43,124.24,148.46,124.12z"/>
					</g>
				</g>
			</g>
		</g>
	</g>
	<g>
		<g>
			<g>
				<path d="M129.12,20.17c-12.41,24.92-22.05,51.65-31.39,77.85c-9.16,25.69-17.12,51.62-23.89,78.03
					c-0.24,0.92,2.85,1.17,3.14,0.04c6.9-26.93,15.07-53.36,24.46-79.54c9.16-25.54,18.59-51.6,30.7-75.92
					C132.66,19.58,129.59,19.23,129.12,20.17L129.12,20.17z"/>
			</g>
		</g>
		<g>
			<g>
				<path d="M122.03,39.42c-1.4-1.79-1.24-5.81-1.17-7.94c0.08-2.61,0.42-5.42,0.89-7.99c-0.66,0.24-1.33,0.49-1.99,0.73
					c0.1,0.01,0.2,0.02,0.3,0.03c1.45,0.15,2.96-1.29,0.85-1.5c-0.1-0.01-0.2-0.02-0.3-0.03c-0.59-0.06-1.84-0.07-1.99,0.73
					c-0.54,2.89-0.95,6.1-0.9,9.03c0.04,2.1-0.06,5.6,1.29,7.32C119.66,40.64,122.66,40.23,122.03,39.42L122.03,39.42z"/>
			</g>
		</g>
		<g>
			<g>
				<path d="M123.36,42.19c3.17-2.15,6.22-4.46,9.17-6.89c2.2-1.81,4.95-3.64,6.48-6.1c0.59-0.94-2.45-1.36-3.02-0.45
					c-1.6,2.58-4.72,4.57-7.05,6.46c-2.68,2.17-5.44,4.23-8.29,6.16C119.57,42.11,122.54,42.74,123.36,42.19L123.36,42.19z"/>
			</g>
		</g>
		<g>
			<g>
				<path d="M118.03,48.17c-6.17-2.06-5.95-11.31-7.47-16.52c-0.28-0.96-3.38-0.82-3.03,0.38c1.82,6.23,1.53,15.02,8.9,17.47
					C117.53,49.87,119.97,48.82,118.03,48.17L118.03,48.17z"/>
			</g>
		</g>
		<g>
			<g>
				<path d="M118.66,50.73c4.14-0.19,7.87-1.45,11.53-3.34c1.85-0.96,3.68-1.98,5.45-3.08c1.82-1.13,2.97-2.8,4.7-3.99
					c1.09-0.75-1.89-1.39-2.7-0.82c-1.24,0.86-2.04,2.11-3.24,3.04c-1.35,1.04-2.98,1.85-4.47,2.68c-3.49,1.95-7.17,3.78-11.25,3.96
					C116.82,49.24,116.75,50.81,118.66,50.73L118.66,50.73z"/>
			</g>
		</g>
		<g>
			<g>
				<path d="M115.01,56.42c-3.52-1.2-5.92-6.32-7.65-9.36c-0.89-1.55-1.66-3.17-2.44-4.78c-0.6-1.26-1.87-3.08-1.92-4.51
					c-0.04-1.11-3.17-1.11-3.14-0.04c0.05,1.54,1.11,3.03,1.77,4.39c1.13,2.32,2.26,4.62,3.6,6.83c2,3.3,4.32,7.48,8.17,8.8
					C114.51,58.13,116.95,57.08,115.01,56.42L115.01,56.42z"/>
			</g>
		</g>
		<g>
			<g>
				<path d="M116.06,57.73c7.67-2.23,14.9-4.63,22.13-8c1.57-0.73-1.31-1.55-2.2-1.13c-6.99,3.26-14.08,5.61-21.49,7.76
					C112.53,56.92,114.95,58.05,116.06,57.73L116.06,57.73z"/>
			</g>
		</g>
		<g>
			<g>
				<path d="M109.69,65.12c-1.81,2.18-5.87-2.6-6.8-3.85c-0.92-1.25-1.68-2.6-2.33-4.01c-1.43-3.07-3.21-7.19-3.51-10.57
					c-0.53,0.26-1.05,0.51-1.58,0.77c0.1,0,0.21,0,0.31,0.01c1.88,0.04,1.91-1.52,0.02-1.57c-0.1,0-0.2,0-0.31-0.01
					c-0.39-0.01-1.63,0.13-1.58,0.77c0.28,3.17,1.86,6.78,3.07,9.73c1.31,3.19,3.24,6.54,6.05,8.65c2.46,1.85,7.36,3.33,9.67,0.55
					C113.35,64.79,110.38,64.29,109.69,65.12L109.69,65.12z"/>
			</g>
		</g>
		<g>
			<g>
				<path d="M113.02,66.02c-0.07-0.02-0.14-0.04-0.21-0.06c-0.41,0.47-0.82,0.95-1.23,1.42c4.35,0.49,9.41-2.06,13.37-3.73
					c5.35-2.26,12.01-4.61,16.19-8.76c1.01-1-1.99-1.53-2.7-0.82c-3.34,3.31-8.63,5.34-12.87,7.23c-2.29,1.02-4.6,2.08-6.99,2.82
					c-1.52,0.47-4.61,1.94-6.15,1.76c-0.95-0.11-3.13,0.87-1.23,1.42c0.07,0.02,0.14,0.04,0.21,0.06
					C112.52,67.67,114.98,66.58,113.02,66.02L113.02,66.02z"/>
			</g>
		</g>
		<g>
			<g>
				<path d="M107.51,75.67c-5.23-1.62-9.01-7.52-11.68-11.93c-1.75-2.89-5.28-8.02-4.94-11.51c0.1-1.04-3.02-1.16-3.14-0.04
					c-0.22,2.19,1.08,4.04,2,5.96c1.45,3.01,2.88,5.87,4.77,8.64c2.87,4.21,6.36,8.66,11.39,10.21
					C107.01,77.35,109.46,76.27,107.51,75.67L107.51,75.67z"/>
			</g>
		</g>
		<g>
			<g>
				<path d="M108.44,75.68c-0.08,0-0.17,0.01-0.25,0.01c-0.47,0.01-2.22,0.38-1.37,1.16c3.88,3.58,9.82,1.02,14.1-0.39
					c7.06-2.33,12.88-5.64,18.99-9.68c1.09-0.72-1.88-1.37-2.7-0.82c-3.74,2.47-7.18,4.73-11.32,6.55
					c-3.2,1.41-13.07,6.62-16.36,3.59c-0.46,0.39-0.91,0.78-1.37,1.16c0.08,0,0.17-0.01,0.25-0.01
					C110.28,77.19,110.34,75.62,108.44,75.68L108.44,75.68z"/>
			</g>
		</g>
		<g>
			<g>
				<path d="M102.46,87.54c-0.08,0.07-0.16,0.14-0.24,0.21c-0.38,0.34-0.17,0.75,0.23,0.95c4.9,2.46,12.34,0.22,17.28-1.33
					c6.71-2.11,14.6-4.96,20.03-9.48c0.87-0.72-0.86-1.22-1.34-1.2c-0.23,0.01-0.47,0.02-0.7,0.03c-1.85,0.08-1.92,1.65-0.02,1.57
					c0.23-0.01,0.47-0.02,0.7-0.03c-0.45-0.4-0.89-0.8-1.34-1.2c-3.9,3.24-9.29,5.28-13.97,7.11c-2.39,0.93-4.8,1.88-7.3,2.49
					c-1.69,0.41-9.56,0.72-10.64,1.7C106.19,87.42,103.2,86.87,102.46,87.54L102.46,87.54z"/>
			</g>
		</g>
		<g>
			<g>
				<path d="M97.75,100.49c5.32,3.43,13.18,0.08,18.52-1.74c3.8-1.29,7.41-2.94,10.93-4.88c2.89-1.59,6.25-2.98,8.29-5.64
					c0.63-0.82-2.36-1.31-3.02-0.45c-2.76,3.59-9.53,6.26-13.62,8.02c-4.09,1.75-14.54,6.4-18.87,3.61
					C99.13,98.86,96.26,99.53,97.75,100.49L97.75,100.49z"/>
			</g>
		</g>
		<g>
			<g>
				<path d="M93.12,112.22c5.07,3.44,12.43,1.19,17.89-0.11c8.98-2.14,17.89-6.65,26.04-10.9c1.55-0.81-1.32-1.6-2.2-1.13
					c-5.17,2.7-10.62,5.22-16.01,7.45c-3.06,1.27-6.17,2.44-9.4,3.22c-3.47,0.83-10.38,2.92-13.6,0.73
					C95.04,110.92,92.04,111.49,93.12,112.22L93.12,112.22z"/>
			</g>
		</g>
		<g>
			<g>
				<path d="M92.84,123.62c-0.05-0.02-0.11-0.03-0.17-0.05c-1.08-0.3-3.57,0.73-1.6,1.34c6.33,1.95,14.33-1.71,20.25-3.79
					c8.27-2.91,17.24-6.34,24.7-10.96c0.53-0.33,0.61-0.76,0.01-1.11c-0.05-0.03-0.1-0.06-0.15-0.09c-0.86-0.5-3.75,0.2-2.23,1.08
					c-2-1.17-5.71,1.89-7.59,2.81c-3.52,1.72-7.11,3.29-10.74,4.76c-3.61,1.46-7.24,2.71-10.96,3.85
					c-3.49,1.07-8.09,3.23-11.71,2.12c-0.53,0.45-1.07,0.89-1.6,1.34c0.05,0.02,0.11,0.03,0.16,0.05
					C92.33,125.26,94.8,124.17,92.84,123.62L92.84,123.62z"/>
			</g>
		</g>
		<g>
			<g>
				<path d="M86.76,136.02c1.33,3.72,13.35-0.86,15.37-1.59c12.18-4.39,22.64-11.62,33.72-18.03c0.54-0.31,0.61-0.78,0.01-1.11
					c-0.05-0.03-0.1-0.06-0.15-0.08c-0.87-0.47-3.77,0.24-2.23,1.08c-1.35-0.74-2.08,0.37-3.2,1.12c-2.53,1.69-5.07,3.37-7.69,4.91
					c-3.7,2.19-7.58,4.02-11.43,5.92c-1.85,0.91-20.57,9.65-21.37,7.4C89.45,134.68,86.35,134.87,86.76,136.02L86.76,136.02z"/>
			</g>
		</g>
		<g>
			<g>
				<path d="M83.24,147.63c2.9,5.47,18.78-2.74,22.51-4.24c5.53-2.23,11.36-4.77,16.4-7.97c3.67-2.33,9.15-5.16,11.32-9.08
					c-1.01-0.15-2.01-0.3-3.02-0.45c-0.04,0.14-0.08,0.27-0.12,0.41c-0.35,1.2,2.74,1.41,3.02,0.45c0.04-0.14,0.08-0.27,0.12-0.41
					c0.36-1.22-2.54-1.32-3.02-0.45c-1.53,2.76-5,4.54-7.53,6.34c-3.84,2.72-7.82,4.7-12.05,6.7c-2.57,1.21-23.14,11.09-24.6,8.33
					C85.77,146.32,82.7,146.62,83.24,147.63L83.24,147.63z"/>
			</g>
		</g>
		<g>
			<g>
				<path d="M103.15,86.87c-5.73-1.59-8.73-7.76-11.14-12.69c-1.02-2.09-1.97-4.22-2.9-6.35c-0.8-1.86-2.6-4.55-2.48-6.64
					c0.06-1.06-3.07-1.15-3.14-0.04c-0.13,2.15,1.39,4.29,2.22,6.22c1.48,3.42,2.98,6.86,4.76,10.14c2.58,4.74,5.66,9.2,11.06,10.7
					C102.64,88.51,105.11,87.42,103.15,86.87L103.15,86.87z"/>
			</g>
		</g>
		<g>
			<g>
				<path d="M98.91,99.62c-2.86-0.31-6.13-6.32-7.79-8.48c-2.15-2.79-4.03-5.76-5.59-8.92c-3-6.07-4.53-12.63-5.69-19.27
					c-0.2-1.14-3.31-1.02-3.14-0.04c1.45,8.28,3.53,16.27,7.91,23.54c2.26,3.74,5.07,7.16,7.82,10.55c1.59,1.97,3.01,3.83,5.63,4.11
					C99.51,101.28,101.02,99.85,98.91,99.62L98.91,99.62z"/>
			</g>
		</g>
		<g>
			<g>
				<path d="M96.14,110.89c-6.91-2.66-11.76-9.99-15.28-16.21c-3.48-6.15-6.19-13.06-7.19-20.07c-0.16-1.13-3.28-1.04-3.14-0.04
					c1.18,8.29,4.55,16.57,9.15,23.54c3.86,5.84,8.12,11.53,14.85,14.12C95.64,112.65,98.05,111.63,96.14,110.89L96.14,110.89z"/>
			</g>
		</g>
		<g>
			<g>
				<path d="M90.28,122.15c-0.13,0.16-0.26,0.31-0.39,0.47c0.51-0.19,1.01-0.37,1.52-0.56c-2.89-0.11-7.18-6.1-9.16-8.16
					c-2.85-2.97-5.58-6.08-7.97-9.43c-4.55-6.38-7.63-13.42-7.7-21.36c-0.01-1.1-3.15-1.12-3.14-0.04
					c0.11,11.18,6.13,20.54,13.36,28.64c2.2,2.46,12.26,16.02,16.5,10.89C93.94,121.82,90.96,121.32,90.28,122.15L90.28,122.15z"/>
			</g>
		</g>
		<g>
			<g>
				<path d="M89.81,135.67c-8.33-4.3-15.24-12.57-20.78-19.96c-5.44-7.26-8.28-13.89-10.22-22.69c-0.25-1.14-3.34-0.98-3.14-0.04
					c2.08,9.41,5.38,16.79,11.38,24.49c5.67,7.27,12.22,15,20.52,19.29C88.45,137.2,91.36,136.47,89.81,135.67L89.81,135.67z"/>
			</g>
		</g>
		<g>
			<g>
				<path d="M82.63,145.96c-4.43-1.42-8.58-7.63-11.26-11.07c-2.41-3.1-4.71-6.28-6.83-9.58c-4.83-7.54-8.08-15.01-9.96-23.76
					c-0.24-1.14-3.34-0.98-3.14-0.04c2.16,10.04,6.22,18.67,12.05,27.16c4.17,6.07,10.15,16.26,17.55,18.63
					C82.13,147.64,84.58,146.58,82.63,145.96L82.63,145.96z"/>
			</g>
		</g>
		<g>
			<g>
				<path d="M81.1,159.21c-7.91-3.31-13.35-12.26-18.22-18.85c-5.08-6.88-10.86-15.28-12.23-23.9c-0.18-1.13-3.29-1.03-3.14-0.04
					c1.51,9.5,7.82,18.28,13.45,25.81c4.83,6.47,10.15,14.82,17.91,18.07C79.76,160.67,82.68,159.88,81.1,159.21L81.1,159.21z"/>
			</g>
		</g>
		<g>
			<g>
				<path d="M81.2,162.72c8.7-4.44,18.57-6.19,27.28-10.72c6.97-3.62,14.38-8.75,18.69-15.43c0.6-0.92-2.44-1.35-3.02-0.45
					c-10.21,15.84-29.79,17.63-45.16,25.46C77.44,162.38,80.32,163.17,81.2,162.72L81.2,162.72z"/>
			</g>
		</g>
	</g>
</g>
</svg>
