<svg id="Layer_1" data-name="Layer 1" xmlns="http://www.w3.org/2000/svg" width="64" height="64" viewBox="0 0 64 64"><defs><style>.cls-1{fill:#C4C5C4;}</style></defs><title>pencil</title><path class="cls-1" d="M48.81,8.12a15.56,15.56,0,0,0-7.87-3.75c-3.57-.69-9.13-.13-9.63.28a49.15,49.15,0,0,0-3,4.28s-2,.72-2.59,1.75a12.62,12.62,0,0,0-1.16,3.09c-.37,1.38.56,1.6.56,1.6s-.81,1.65-2.5,4.93-8.56,18.6-8.81,19.38a16.62,16.62,0,0,0-1,2.94c-.09.93.44,12,.88,13.75a5,5,0,0,0,2.72,3.46c1,.32,1.59.1,4.43-1.37S32.15,52,33.22,51.37s1.12-.85,2.31-2.75,10.31-23,10.31-23a1,1,0,0,0,1.06-.07c.66-.34,1.38-2.09,1.82-3.78s-.41-2.31-.57-2.84,2.82-5.5,3-6.19S50.19,9.55,48.81,8.12ZM23.09,24.62c3.35-6.72,4.13-8.82,4.47-9.22S29.09,15,31.09,15s3.1.59,3.06.69S24.31,35.93,23.06,38.77,20.84,43,20.69,43a4.58,4.58,0,0,0-2.91-1.66c-1.81-.09-2.25,0-2.25-.15S19.75,31.33,23.09,24.62Zm12.47-8.54a8.61,8.61,0,0,1,3.22.91c1.28.66,2.31,1.75,2.22,1.91s-7.88,16-10.25,20.53-3,6.12-3.19,6.15-1.62-1.9-2.91-2.12-2.43-.53-2.43-.53,7.06-14.22,9.22-18.41S35.34,16.3,35.56,16.08Zm-5.69,33.5c-.34.35-7.15,4.32-7.18,4.07s-.22-.82-.69-.72-2,.87-3.28,0-2.1-2.09-2.44-2.06a2.73,2.73,0,0,0-.81.28c0-.16-.75-7.81-.53-8.28s1.65-.91,2.93-.41,1.82,1.56,2.35,1.69,2.47-.44,4.09.47,2.09,3.15,2.53,3.22,1.94-.22,2.63.31S30.22,49.24,29.87,49.58ZM43,27.37A33.54,33.54,0,0,0,41.56,23c-.22,0-.91.19-.75.75s1.72,4.41,1.59,4.75a10.08,10.08,0,0,1-.65,1.72,37.05,37.05,0,0,0-1.47-4.5c-.19,0-.78.56-.59,1a44.22,44.22,0,0,1,1.62,4.34,3,3,0,0,1-.28,1.1c-.09,0-1.63-4.41-1.84-4.38s-.85.19-.72.63,2,4.5,1.87,4.9-.75,2.07-.9,1.82-1.41-4.6-1.69-4.63-.6.91-.6.91,1.94,4.5,1.88,4.78a10.08,10.08,0,0,1-.91,2c0-.16-1.28-5.47-1.59-5.47s-.84.44-.72.78,1.88,5.28,1.88,5.72-.63,1.59-.69,1.34-1.47-5.19-1.56-5.19-.79.91-.69,1.13,1.9,4.78,1.84,5.06-.65,1.6-.65,1.6-1.41-4.94-1.69-5-.63.71-.6.93,1.82,5.16,1.69,5.41-.53,1.19-.72,1.09S32.9,40.8,32.81,40.8s-.66.78-.59,1.07,2.09,4.62,1.84,5.21-.5,1.5-.62,1.19-1.63-4.09-2-4.15-.75.43-.65.68,2,4.07,1.84,4.25-.5.63-1,.22-.56-1.94-1.4-2.22-1.78-.34-1.75-.47,4.4-8.87,7.65-15.68,5-10.38,5.88-11.19c.11-.11.75.81.72,1a2.9,2.9,0,0,0,.09,1.94c.38,1.43.59,2.06.72,2s.25,0,.25-.28-.13-1.25,0-1.28.53.81.53.9S43,27.37,43,27.37Zm4.37-6c-.22.68-1,2.59-1.25,2.5a26.41,26.41,0,0,0-1.78-3.5,11.76,11.76,0,0,0-6.22-5.13,24.13,24.13,0,0,0-9.25-1.47,24.7,24.7,0,0,1-2.84.16A3.69,3.69,0,0,1,26.37,12a3.76,3.76,0,0,1,2-1.94,15.66,15.66,0,0,1,7.91.6,20.18,20.18,0,0,1,8.66,6.5C47.22,20.12,47.59,20.68,47.37,21.37Zm1.53-8.79s-1.4-2-1.68-1.9-.78.44-.6.69,1.94,2,1.72,2.34-.44,1.12-.56,1S46,12.49,45.65,12.49s-1,.5-.68.84,2.25,2,2.22,2.29-.35,1.21-.57,1.15-3.5-4.87-7.37-6.4a30.11,30.11,0,0,0-8.19-1.79A13.5,13.5,0,0,1,33,5.9a15.61,15.61,0,0,1,9.81,1c4.56,2.12,6.37,5.21,6.28,5.4ZM27.34,20.4c.13-.25,1.72-3.13,2-3.6s-.56-.28-.84-.25S27.12,19.18,26.84,20s-.17,1.26-.09,1.31S27.22,20.65,27.34,20.4ZM31.78,11a10.58,10.58,0,0,0-3.06.09,17.53,17.53,0,0,0-.78,1.72c-.22.35.84.28,1,.28s.25-.9.5-1a10.83,10.83,0,0,1,2.4.21c.38.13.6-.46.72-.81S32.59,11.08,31.78,11Z"/></svg>